<?xml version="1.0" encoding="UTF-8" standalone="no"?>
<!-- Created with Inkscape (http://www.inkscape.org/) -->

<svg
   width="189.92802mm"
   height="190.054mm"
   viewBox="0 0 189.92802 190.054"
   version="1.1"
   id="svg1"
   xmlns="http://www.w3.org/2000/svg"
   xmlns:svg="http://www.w3.org/2000/svg">
  <defs
     id="defs1" />
  <g
     id="layer1"
     transform="translate(-2.4747749,-2.3505518)">
    <g
       id="g62"
       transform="translate(-6.1420241,-72.587558)">
      <path
         style="fill:#ff0000;fill-opacity:0;stroke:#b61d1d;stroke-width:7.52898;stroke-opacity:1"
         d="m 10.290716,125.20372 c 6.08867,-6.59142 12.620087,-12.7738 19.535639,-18.49165 4.808769,-3.97594 9.956637,-7.910233 12.797443,-13.465608 1.420403,-2.777687 2.202192,-5.934918 1.871195,-9.0371 -0.330997,-3.102182 -1.846859,-6.129508 -4.35804,-7.98074 -1.238825,-0.913257 -2.703406,-1.530833 -4.230952,-1.71879 -1.527547,-0.187957 -3.115092,0.06182 -4.484179,0.764903 -1.833888,0.941778 -3.202847,2.65738 -3.965207,4.572817 -0.76236,1.915436 -0.954676,4.020929 -0.825998,6.078483 0.257357,4.11511 1.751468,8.05943 2.228399,12.154902 0.610504,5.242473 -0.46348,10.526663 -1.729057,15.650583 -1.265577,5.12392 -2.737213,10.25303 -2.939562,15.52705 -0.178756,4.65908 0.640133,9.3013 0.689139,13.96356 0.0245,2.33112 -0.146153,4.6774 -0.721963,6.93642 -0.575811,2.25903 -1.569333,4.43421 -3.070006,6.21823 -0.307452,0.36551 -0.637115,0.71548 -1.015811,1.00653 -0.607019,0.46652 -1.333842,0.77257 -2.089275,0.89681 -0.755433,0.12424 -1.538145,0.0679 -2.272754,-0.14765 -1.469218,-0.43111 -2.716282,-1.49943 -3.477241,-2.82812 -0.760958,-1.32868 -1.052566,-2.89972 -0.945885,-4.42717 0.10668,-1.52744 0.598416,-3.01287 1.311115,-4.36805 1.425396,-2.71037 3.683572,-4.87009 5.851906,-7.03253 2.168333,-2.16244 4.333259,-4.45046 5.490968,-7.28552 0.802651,-1.96557 1.080925,-4.10418 1.219891,-6.22277 0.138966,-2.11858 0.146436,-4.24934 0.44012,-6.35206 0.293684,-2.10273 0.892924,-4.20595 2.104845,-5.94921 0.60596,-0.87163 1.362152,-1.64426 2.249745,-2.22659 0.887592,-0.58233 1.90843,-0.97096 2.964789,-1.076 1.706959,-0.16974 3.445036,0.41701 4.812812,1.45224 1.367775,1.03524 2.380703,2.49342 3.04532,4.07481 1.191384,2.83478 1.290534,6.03184 0.819347,9.07049 -0.471186,3.03864 -1.48519,5.96221 -2.465314,8.87678 -1.036532,3.08231 -2.043615,6.18797 -2.611687,9.3899 -0.568072,3.20192 -0.686921,6.52159 0.04985,9.68896 0.487002,2.09362 1.384481,4.15652 2.951127,5.62827 0.783323,0.73587 1.726792,1.31051 2.758881,1.61034 1.03209,0.29982 2.153211,0.31771 3.177715,-0.007 0.891983,-0.28279 1.700537,-0.82355 2.30253,-1.53994 0.601994,-0.71638 0.995412,-1.60599 1.120343,-2.53335"
         id="path10"
         transform="matrix(1.0184844,0,0,1.1001535,6.148413,-2.8245085)" />
      <path
         style="fill:#ff0000;fill-opacity:0;stroke:#b64e1d;stroke-width:7.52898;stroke-opacity:1"
         d="m 56.17016,130.34908 c 2.22632,1.19421 4.774088,1.78217 7.298581,1.68432 2.524494,-0.0978 5.019108,-0.88125 7.146314,-2.2442 1.579917,-1.01229 2.991269,-2.39035 3.68597,-4.13341 0.529908,-1.32959 0.614076,-2.82722 0.268743,-4.21622 -0.345332,-1.38901 -1.114079,-2.66498 -2.15793,-3.64425 -1.043851,-0.97927 -2.357083,-1.6621 -3.750956,-1.98723 -1.393874,-0.32513 -2.865029,-0.2953 -4.253278,0.0531 -2.116374,0.53108 -4.009314,1.78886 -5.499143,3.38307 -1.489829,1.59421 -2.596132,3.51515 -3.455159,5.52093 -2.60288,6.07759 -2.970432,12.99115 -1.598469,19.45875 0.411209,1.93849 0.979642,3.85992 1.91558,5.60658 0.935938,1.74667 2.259119,3.31871 3.957253,4.34006 2.305685,1.38677 5.195733,1.66157 7.797697,0.97666 3.595744,-0.9465 6.656036,-3.72861 7.939891,-7.21816"
         id="path11"
         transform="translate(7.2587558,4.4669266)" />
      <path
         style="fill:#ff0000;fill-opacity:0;stroke:#e98900;stroke-width:7.52898;stroke-opacity:1"
         d="m 87.47109,90.47255 c -0.324434,21.89371 0.2215,43.8003 1.636082,65.65067 0.116079,1.79303 0.252019,3.63951 1.0518,5.24848 0.399891,0.80448 0.967352,1.53607 1.699285,2.05701 0.731933,0.52095 1.634402,0.82111 2.530752,0.76057 0.634368,-0.0428 1.255577,-0.26588 1.772326,-0.63632 0.516748,-0.37045 0.927432,-0.88716 1.171691,-1.47418"
         id="path13"
         transform="matrix(0.79889914,0,0,1.0598015,24.428468,-5.2130747)" />
      <path
         style="fill:#ff0000;fill-opacity:0;stroke:#e3b100;stroke-width:7.52898;stroke-opacity:1"
         d="m 103.76472,78.895492 c 6.74891,19.835245 6.88459,41.858578 0.3806,61.775468 -0.65783,2.01443 -1.38788,4.04009 -1.50754,6.15582 -0.0598,1.05787 0.0373,2.13188 0.36681,3.13889 0.32953,1.00701 0.89839,1.94571 1.6952,2.64411 1.19646,1.04871 2.89556,1.49571 4.4532,1.17155 1.55763,-0.32415 2.93734,-1.41187 3.61611,-2.85082"
         id="path15"
         transform="translate(7.2587558,4.4669266)" />
      <path
         style="fill:#ff0000;fill-opacity:0;stroke:#d3c600;stroke-width:7.52898;stroke-opacity:1"
         d="m 138.92467,115.34178 c -4.10803,1.11744 -7.82572,3.62131 -10.40539,7.00803 -2.57966,3.38672 -4.00586,7.63603 -3.99174,11.8933 0.0144,4.35744 1.53137,8.68095 4.16464,12.15275 1.49279,1.96816 3.36168,3.6879 5.58171,4.77119 2.22003,1.08328 4.80845,1.49633 7.20483,0.89682 2.23853,-0.56002 4.20556,-1.9695 5.70412,-3.72419 1.49856,-1.75469 2.55918,-3.84394 3.39884,-5.99327 2.35754,-6.03478 3.01744,-12.92053 0.75778,-18.99264 -1.13048,-3.0378 -2.97812,-5.8189 -5.40923,-7.9627 -2.43111,-2.1438 -5.44797,-3.63723 -8.64507,-4.17084 -1.85999,-0.31044 -3.84251,-0.28312 -5.54211,0.53377 -0.8498,0.40844 -1.61273,1.01312 -2.15551,1.78408 -0.54278,0.77095 -0.85751,1.71117 -0.82832,2.65357 0.0295,0.9528 0.40909,1.88002 1.00182,2.6266 0.59272,0.74658 1.3906,1.31736 2.26131,1.70538 1.74143,0.77605 3.71608,0.82417 5.61877,0.7034 7.33801,-0.4658 14.30404,-3.2164 21.39083,-5.17621 6.79047,-1.87786 13.75394,-3.04001 20.66573,-4.40535 0.27294,-0.0539 0.54582,-0.10815 0.81864,-0.16271"
         id="path17"
         transform="translate(7.2587558,4.4669266)" />
      <path
         style="fill:#ff0000;fill-opacity:0;stroke:#347e20;stroke-width:7.52898;stroke-opacity:1"
         d="m 5.1453581,199.81141 c -0.062333,-0.43601 0.016949,-0.89112 0.223042,-1.28037 0.2159888,-0.40793 0.5678904,-0.73934 0.980158,-0.94694 0.4122676,-0.2076 0.8825315,-0.29296 1.3430734,-0.26191 0.9210838,0.0621 1.7729908,0.58637 2.3581655,1.30039 0.585174,0.71401 0.924474,1.60317 1.111362,2.50722 0.186888,0.90406 0.229939,1.8307 0.281042,2.75246 0.397248,7.16534 1.313878,14.30261 1.431534,21.47799 0.08955,5.46138 -0.271748,11.03171 1.220367,16.28606 0.268814,0.94661 0.601752,1.88715 1.141976,2.70964 0.540224,0.82248 1.306902,1.52488 2.239428,1.83907 1.089446,0.36706 2.329796,0.16373 3.312998,-0.43204 0.983202,-0.59577 1.717243,-1.5552 2.154915,-2.61825 0.437673,-1.06304 0.593123,-2.22647 0.580965,-3.37603 -0.01216,-1.14955 -0.187347,-2.29098 -0.39023,-3.42255 -0.405766,-2.26316 -0.925097,-4.58008 -0.486671,-6.83713 0.219214,-1.12853 0.687413,-2.22437 1.452306,-3.0826 0.764893,-0.85823 1.841401,-1.46238 2.988007,-1.54558 0.701199,-0.0509 1.412548,0.0921 2.050093,0.38838 0.637545,0.29632 1.201417,0.7437 1.653654,1.28198 0.904474,1.07657 1.345084,2.49372 1.396276,3.89887 0.07274,1.99658 -0.591406,3.94065 -1.304741,5.80688 -0.713336,1.86622 -1.49335,3.74448 -1.669613,5.7346 -0.08813,0.99506 -0.02033,2.01145 0.279066,2.96448 0.299401,0.95303 0.837884,1.8411 1.59928,2.48777 0.761396,0.64668 1.751692,1.03923 2.750262,1.0115 0.99857,-0.0277 1.99208,-0.49631 2.58993,-1.29662 0.339068,-0.45389 0.545396,-0.99586 0.668153,-1.54896 0.122757,-0.55309 0.16548,-1.12043 0.203691,-1.6857 0.44007,-6.51 0.325796,-13.0462 0.01245,-19.56353 -0.360174,-7.49132 -0.982552,-15.00949 -0.280352,-22.47652 0.321209,-3.41566 0.934128,-6.85282 2.403215,-9.95309 1.469086,-3.10027 3.874221,-5.85779 7.026537,-7.2116 1.962313,-0.84274 4.166072,-1.11415 6.274225,-0.77272"
         id="path26"
         transform="translate(7.2587558,4.4669266)" />
      <path
         style="fill:#ff0000;fill-opacity:0;stroke:#176911;stroke-width:7.52898;stroke-opacity:1"
         d="m 63.030639,210.95969 c -3.263211,0.75002 -6.314765,2.40009 -8.72904,4.72008 -2.414274,2.31999 -4.184542,5.30343 -5.06389,8.53419 -0.879348,3.23076 -0.865327,6.69985 0.04011,9.92339 0.905435,3.22355 2.699762,6.19258 5.132711,8.49298 2.301742,2.17633 5.268951,3.77843 8.432988,3.93116 3.021475,0.14585 6.027454,-1.05731 8.333939,-3.01453 2.899953,-2.46082 4.722799,-6.04068 5.474715,-9.76894 0.751916,-3.72827 0.491265,-7.60448 -0.279081,-11.32898 -0.571804,-2.76459 -1.431075,-5.49259 -2.825964,-7.94701 -1.394889,-2.45443 -3.350058,-4.63199 -5.804368,-6.02708 -1.507126,-0.85668 -3.265292,-1.41503 -4.973205,-1.11775 -0.853956,0.14864 -1.677117,0.51516 -2.320237,1.09631 -0.64312,0.58115 -1.097236,1.38192 -1.20808,2.2416 -0.07712,0.59814 0.01116,1.21363 0.229487,1.77581 0.218331,0.56219 0.564542,1.07144 0.988897,1.49997 0.84871,0.85707 1.989957,1.37845 3.162713,1.66045 1.719028,0.41335 3.533368,0.34259 5.256899,-0.0516 1.72353,-0.39415 3.362456,-1.10394 4.912639,-1.95414 3.100367,-1.70041 5.865258,-3.96156 8.96264,-5.6674 2.544604,-1.4014 5.301232,-2.417 8.146817,-3.00146"
         id="path27"
         transform="translate(7.2587558,4.4669266)" />
      <path
         style="fill:#ff0000;fill-opacity:0;stroke:#188b87;stroke-width:7.52898;stroke-opacity:1"
         d="m 93.045229,220.39284 c 0.18379,2.49322 0.384394,4.9852 0.601794,7.47571 0.640731,7.34018 1.113325,14.69695 1.113325,22.06505 v 2.61773"
         id="path33"
         transform="translate(7.2587558,4.4669266)" />
      <path
         style="fill:#ff0000;fill-opacity:0;stroke:#188f8c;stroke-width:7.52898;stroke-opacity:1"
         d="m 94.760348,233.25624 c 2.592064,-1.41164 4.674642,-3.73686 5.793232,-6.46821 1.10986,-2.71002 1.26919,-5.69926 1.45582,-8.62179 0.18663,-2.92253 0.43435,-5.91997 1.69526,-8.5631 0.72826,-1.52658 1.80067,-2.9104 3.19726,-3.86452 1.3966,-0.95413 3.12932,-1.45487 4.80618,-1.23358 1.05819,0.13964 2.07582,0.5623 2.93068,1.20142 0.85485,0.63912 1.54618,1.49227 2.00792,2.45458 0.77712,1.61959 0.88906,3.49125 0.66341,5.2734 -0.22565,1.78215 -0.77003,3.50558 -1.25747,5.23456 -0.21157,0.75046 -0.41282,1.50383 -0.60367,2.25982 l -0.067,-0.28139 -0.0402,-0.25459"
         id="path36"
         transform="translate(7.2587558,4.4669266)" />
      <path
         style="fill:#ff0000;fill-opacity:0;stroke:#183197;stroke-width:7.52898;stroke-opacity:1"
         d="m 125.6325,180.51632 c 4.52065,13.40474 5.47254,27.99504 2.73187,41.87352 -1.6806,8.51035 -4.72317,16.78972 -5.30455,25.44492 -0.13467,2.0048 -0.11877,4.09934 0.74572,5.91318 0.43225,0.90693 1.07855,1.72374 1.91553,2.27944 0.83698,0.5557 1.87052,0.83652 2.8649,0.69318 0.83599,-0.12051 1.62552,-0.54115 2.19188,-1.16777"
         id="path37"
         transform="translate(7.2587558,4.4669266)" />
      <path
         style="fill:#ff0000;fill-opacity:0;stroke:#48147d;stroke-width:5.329;stroke-dasharray:none;stroke-opacity:1"
         d="m 162.50756,218.67773 c -2.22301,-1.50724 -4.86043,-2.39651 -7.54223,-2.54304 -2.6818,-0.14654 -5.40041,0.45007 -7.77441,1.70612 -2.26543,1.19862 -4.20653,2.98678 -5.64339,5.10912 -1.43685,2.12234 -2.37254,4.57294 -2.78351,7.10276 -0.82196,5.05964 0.48104,10.34382 3.12674,14.73424 1.26992,2.10739 2.87158,4.05941 4.92301,5.41789 2.05142,1.35847 4.58998,2.08133 7.01244,1.6506 2.60054,-0.46239 4.84147,-2.20269 6.40901,-4.32859 1.56754,-2.1259 2.54041,-4.62498 3.39938,-7.12274 1.67272,-4.864 2.98334,-9.85598 3.83438,-14.92867 2.07925,-12.39345 1.39865,-25.11507 3.32247,-37.53359 0.39373,-2.54163 0.89125,-5.17856 0.16661,-7.64632 -0.4391,-1.49535 -1.32248,-2.85211 -2.48836,-3.88633 -1.16589,-1.03421 -2.60854,-1.74649 -4.13104,-2.07945 -3.04502,-0.66591 -6.33488,0.22815 -8.80174,2.13345 -2.46685,1.9053 -4.12976,4.74953 -4.86192,7.7793 -0.73215,3.02977 -0.57176,6.2337 0.1752,9.25985 1.4939,6.05232 5.20473,11.27671 8.773,16.38843 3.56826,5.11172 7.15108,10.4625 8.32313,16.58529 0.7009,3.6615 0.50129,7.42526 0.53848,11.15305 0.0372,3.72779 0.34049,7.55697 1.94934,10.91992 0.95961,2.00585 2.388,3.80974 4.22512,5.06245 1.83712,1.25271 4.09317,1.92954 6.30727,1.7244 1.86343,-0.17266 3.66332,-0.97163 5.04131,-2.23786 1.37799,-1.26622 2.326,-2.99227 2.65529,-4.83448"
         id="path39"
         transform="translate(7.2587558,4.4669266)" />
      <path
         style="fill:#550000;fill-opacity:0;stroke:#57aa2a;stroke-width:5.329;stroke-dasharray:none;stroke-opacity:1"
         d="m 168.93926,146.64271 2.57268,3.43024"
         id="path58"
         transform="translate(7.2587558,4.4669266)" />
      <path
         style="fill:#550000;fill-opacity:0;stroke:#57aa2a;stroke-width:5.329;stroke-dasharray:none;stroke-opacity:1"
         d="m 167.22414,159.50611 c 1.34421,-0.37355 2.57326,-1.15139 3.48622,-2.20635 1.38354,-1.59873 1.99274,-3.74657 2.12665,-5.85659 0.0437,-0.68814 0.0337,-1.41132 -0.28741,-2.02151 -0.16055,-0.3051 -0.39962,-0.57369 -0.7018,-0.73966 -0.30218,-0.16597 -0.66925,-0.22296 -0.99975,-0.12481 -0.249,0.0739 -0.46628,0.22977 -0.65694,0.40618 -0.19067,0.1764 -0.35929,0.37519 -0.54531,0.55649 -0.40206,0.39185 -0.89314,0.71167 -1.17206,1.19891 -0.13946,0.24362 -0.21925,0.52884 -0.18119,0.80696 0.019,0.13906 0.0675,0.27466 0.146,0.39104 0.0785,0.11638 0.18721,0.21306 0.31453,0.27213 0.1181,0.0548 0.25045,0.0766 0.38042,0.069 0.12998,-0.008 0.25754,-0.0442 0.37478,-0.1008 0.23447,-0.11325 0.42405,-0.30341 0.58023,-0.51177 0.33908,-0.45237 0.53892,-1.00767 0.56587,-1.57238"
         id="path60"
         transform="translate(7.2587558,4.4669266)" />
    </g>
  </g>
</svg>
